<?xml version="1.0" standalone="no"?>
<!DOCTYPE svg PUBLIC "-//W3C//DTD SVG 20010904//EN"
 "http://www.w3.org/TR/2001/REC-SVG-20010904/DTD/svg10.dtd">
<svg version="1.0" xmlns="http://www.w3.org/2000/svg"
 width="404.000000pt" height="404.000000pt" viewBox="0 0 404.000000 404.000000"
 preserveAspectRatio="xMidYMid meet">
<metadata>
Created by potrace 1.11, written by Peter Selinger 2001-2013
</metadata>
<g transform="translate(0.000000,404.000000) scale(0.100000,-0.100000)"
fill="#000000" stroke="none">
<path d="M910 3644 c-317 -84 -601 -484 -764 -1079 -32 -119 -73 -306 -81
-375 -4 -30 -8 -57 -10 -60 -2 -3 -6 -30 -10 -60 -3 -30 -8 -62 -10 -70 -2 -8
-7 -51 -10 -95 -4 -44 -9 -98 -11 -120 -11 -99 -14 -583 -4 -629 51 -239 330
-448 795 -596 175 -56 338 -92 565 -124 58 -8 130 -17 160 -20 30 -3 89 -9
130 -13 95 -9 598 -10 710 0 178 15 185 15 360 42 599 92 1071 306 1236 561
18 28 43 80 55 115 19 57 21 78 15 194 -11 244 -57 444 -147 631 -16 34 -29
64 -29 67 0 10 -83 141 -138 217 -123 169 -361 371 -546 461 -101 50 -263 106
-361 125 -11 2 -31 6 -45 9 -164 33 -469 21 -629 -26 -48 -14 -202 -69 -233
-83 -37 -16 -38 -16 -38 3 0 11 -4 22 -9 25 -4 3 -11 20 -15 37 -3 17 -12 45
-20 62 -7 18 -19 48 -27 67 -14 40 -94 204 -129 265 -79 141 -228 312 -332
383 -26 18 -81 46 -124 63 -93 37 -215 46 -304 23z m390 -2036 l0 -192 38 36
c102 99 274 55 312 -80 5 -20 10 -121 10 -224 l0 -188 -65 0 -65 0 0 170 c0
225 -14 260 -105 260 -54 0 -90 -23 -109 -70 -12 -31 -16 -76 -16 -200 l0
-160 -65 0 -65 0 0 420 0 420 65 0 65 0 0 -192z m1559 147 c21 -20 17 -66 -9
-87 -30 -24 -46 -23 -75 7 -32 31 -31 50 0 81 27 26 55 26 84 -1z m-1868 -281
c91 -46 147 -161 135 -276 -7 -75 -25 -116 -73 -168 -50 -57 -102 -80 -181
-80 -71 0 -124 18 -164 57 l-28 27 0 -167 0 -167 -65 0 -65 0 0 395 0 395 60
0 60 0 0 -42 0 -42 39 38 c71 69 182 81 282 30z m1158 10 c60 -25 98 -62 127
-120 54 -110 33 -257 -49 -343 -46 -48 -101 -71 -175 -71 -71 0 -124 18 -164
57 l-28 27 0 -167 0 -167 -65 0 -65 0 0 395 0 395 60 0 60 0 0 -42 1 -43 22
25 c34 40 54 52 105 66 52 15 118 10 171 -12z m551 4 c0 -52 -9 -64 -45 -60
-19 2 -52 -5 -79 -17 -39 -17 -51 -29 -68 -68 -18 -41 -22 -72 -26 -215 l-5
-168 -38 0 -39 0 0 270 0 270 34 0 c37 0 46 -12 46 -61 l0 -29 40 40 c41 41
80 58 143 59 32 1 37 -2 37 -21z m629 6 c65 -19 131 -77 163 -142 34 -72 32
-178 -6 -256 -48 -98 -130 -144 -257 -145 -66 -1 -84 3 -138 30 -138 69 -187
240 -111 388 58 114 207 168 349 125z m-469 -264 l0 -270 -45 0 -45 0 0 270 0
270 45 0 45 0 0 -270z"/>
<path d="M762 1373 c-52 -26 -82 -77 -82 -143 0 -73 25 -118 81 -148 76 -41
159 -21 213 52 30 39 30 143 0 183 -52 70 -138 93 -212 56z"/>
<path d="M1944 1376 c-87 -38 -118 -164 -60 -248 33 -48 81 -70 144 -65 64 5
99 28 130 88 73 140 -68 288 -214 225z"/>
<path d="M3210 1432 c-90 -12 -151 -67 -169 -152 -27 -128 43 -240 160 -256
53 -7 116 8 153 37 57 45 88 149 67 227 -12 42 -58 104 -91 122 -26 14 -92 26
-120 22z"/>
</g>
</svg>
